<!DOCTYPE svg PUBLIC "-//W3C//DTD SVG 1.1//EN" "http://www.w3.org/Graphics/SVG/1.1/DTD/svg11.dtd">
<!-- Uploaded to: SVG Repo, www.svgrepo.com, Transformed by: SVG Repo Mixer Tools -->
<svg height="800px" width="800px" version="1.1" id="_x32_" xmlns="http://www.w3.org/2000/svg" xmlns:xlink="http://www.w3.org/1999/xlink" viewBox="0 0 512 512" xml:space="preserve" fill="#ffffff" stroke="#ffffff">
<g id="SVGRepo_bgCarrier" stroke-width="0"/>
<g id="SVGRepo_tracerCarrier" stroke-linecap="round" stroke-linejoin="round"/>
<g id="SVGRepo_iconCarrier"> <style type="text/css"> .st0{fill:#ffffff;} </style> <g> <path class="st0" d="M461.81,197.514c-2.999-11.335-14.624-18.093-25.959-15.094c-1.859,0.553-13.47,3.649-26.041,14.341 c-6.234,5.349-12.626,12.751-17.361,22.454c-4.741,9.69-7.678,21.577-7.657,35.033c0.013,16.345,4.133,34.895,13.449,56.257 c6.275,14.403,9.137,29.697,9.137,44.846c0.069,25.627-8.432,50.756-21.114,68.283c-6.297,8.777-13.546,15.606-20.824,20.022 c-2.986,1.81-5.944,3.131-8.888,4.181l0.995-5.854c-0.055-17.03-4.05-34.84-13.021-50.528 c-28.363-49.643-66.223-134.741-66.223-134.741l-1.534-4.879c29.47-7.796,58.58-23.408,73.155-54.985 c38.931-84.344-41.086-142.73-41.086-142.73s-25.952-56.222-38.924-54.06c-12.979,2.164-41.094,38.931-41.094,38.931h-23.781 H181.25c0,0-28.107-36.767-41.086-38.931c-12.972-2.163-38.924,54.06-38.924,54.06s-80.011,58.386-41.08,142.73 c13.822,29.953,40.735,45.572,68.628,53.748l-2.945,9.662c0,0-31.916,81.552-60.279,131.195C37.201,441.092,58.473,512,97.48,512 c29.47,0,79.134,0,101.692,0c7.284,0,11.763,0,11.763,0c22.544,0,72.222,0,101.691,0c12.648,0,23.374-7.547,31.197-19.324 c15.834-0.013,30.81-4.872,43.706-12.758c19.462-11.915,34.708-30.32,45.434-51.896c10.692-21.618,16.863-46.636,16.877-72.672 c0-20.484-3.877-41.619-12.675-61.813c-7.568-17.34-9.918-30.216-9.911-39.29c0.028-7.526,1.507-12.544,3.359-16.414 c1.424-2.889,3.124-5.17,4.99-7.091c2.764-2.868,5.964-4.879,8.349-6.054c1.175-0.595,2.135-0.968,2.667-1.162l0.457-0.152 l-0.014-0.028C458.175,220.189,464.782,208.724,461.81,197.514z M273.591,24.506l9.579,23.954l-23.948-4.79L273.591,24.506z M134.676,24.506l14.368,19.165l-23.947,4.79L134.676,24.506z M83.865,198.882l-0.677-6.344l68.096-7.264l0.684,6.352 L83.865,198.882z M154.186,170.36l-69.782-5.502l0.498-6.358l69.782,5.488L154.186,170.36z M147.185,133.094 c-9.4,0-17.043-7.63-17.043-17.036c0-9.399,7.643-17.029,17.043-17.029c9.406,0,17.029,7.63,17.029,17.029 C164.215,125.464,156.592,133.094,147.185,133.094z M243.583,208.827c-5.446,1.299-10.284,1.914-14.618,1.914 c-5.736,0.007-10.622-1.098-14.658-3.124c-4.015-2.024-7.091-4.976-9.247-8.238c-0.352-0.553-0.552-1.126-0.87-1.679 c-2.212,3.932-5.515,7.547-10.229,9.917c-4.029,2.026-8.915,3.124-14.652,3.124c-4.34-0.006-9.164-0.615-14.617-1.907 c-2.634-0.636-4.25-3.283-3.628-5.916c0.622-2.626,3.276-4.257,5.902-3.628c4.852,1.168,8.944,1.652,12.343,1.652 c4.52,0,7.789-0.844,10.228-2.074c2.447-1.244,4.147-2.875,5.502-4.893c2.681-3.988,3.635-9.8,3.608-14.921 c0-2.909-0.276-5.473-0.56-7.36l-9.765-8.854c-2.004-1.811-2.696-4.665-1.714-7.187c0.967-2.53,3.386-4.188,6.082-4.188h22.889 c2.64,0,5.018,1.59,6.027,4.029c1.016,2.439,0.456,5.26-1.417,7.125l-10.153,10.152c-0.221,1.756-0.421,3.871-0.421,6.269 c0,3.828,0.511,8.085,1.921,11.624c1.444,3.573,3.56,6.352,7.194,8.204c2.44,1.23,5.709,2.074,10.236,2.074 c3.408,0,7.499-0.484,12.337-1.645c2.626-0.629,5.28,0.995,5.902,3.621C247.84,205.551,246.215,208.191,243.583,208.827z M244.053,116.058c0-9.399,7.63-17.029,17.036-17.029c9.406,0,17.036,7.63,17.036,17.029c0,9.406-7.63,17.036-17.036,17.036 C251.683,133.094,244.053,125.464,244.053,116.058z M253.597,163.987l69.768-5.488l0.497,6.358l-69.768,5.502L253.597,163.987z M256.99,185.274l68.102,7.264l-0.684,6.344l-68.096-7.257L256.99,185.274z"/> </g> </g>
</svg>