<?xml version="1.0" encoding="UTF-8" standalone="no"?>
<!-- Created with Inkscape (http://www.inkscape.org/) -->

<svg
   width="25.000122"
   height="24.999992"
   viewBox="0 0 25.000122 24.999992"
   version="1.1"
   id="svg5"
   xml:space="preserve"
   inkscape:version="1.2.2 (732a01da63, 2022-12-09)"
   sodipodi:docname="_desktop-1280-720.svg"
   inkscape:export-filename="_mobile-720-1820.png"
   inkscape:export-xdpi="96"
   inkscape:export-ydpi="96"
   xmlns:inkscape="http://www.inkscape.org/namespaces/inkscape"
   xmlns:sodipodi="http://sodipodi.sourceforge.net/DTD/sodipodi-0.dtd"
   xmlns="http://www.w3.org/2000/svg"
   xmlns:svg="http://www.w3.org/2000/svg"><sodipodi:namedview
     id="namedview7"
     pagecolor="#ffffff"
     bordercolor="#000000"
     borderopacity="0.25"
     inkscape:showpageshadow="2"
     inkscape:pageopacity="0.0"
     inkscape:pagecheckerboard="0"
     inkscape:deskcolor="#d1d1d1"
     inkscape:document-units="px"
     showgrid="false"
     showguides="false"
     inkscape:zoom="0.3859375"
     inkscape:cx="347.20648"
     inkscape:cy="443.07692"
     inkscape:window-width="1366"
     inkscape:window-height="697"
     inkscape:window-x="-8"
     inkscape:window-y="-8"
     inkscape:window-maximized="1"
     inkscape:current-layer="layer4"><sodipodi:guide
       position="-709.06665,-1019.6853"
       orientation="0,-1"
       id="guide132"
       inkscape:locked="false" /><sodipodi:guide
       position="-1429.0667,260.31464"
       orientation="1,0"
       id="guide184"
       inkscape:locked="false" /><sodipodi:guide
       position="-709.06665,260.31464"
       orientation="0,-1"
       id="guide186"
       inkscape:locked="false" /><sodipodi:guide
       position="-709.06665,-1019.6853"
       orientation="1,0"
       id="guide188"
       inkscape:locked="false" /><sodipodi:guide
       position="-1189.0666,57.427238"
       orientation="-1,0"
       id="guide6632"
       inkscape:locked="false"
       inkscape:label=""
       inkscape:color="rgb(0,134,229)" /><sodipodi:guide
       position="-949.06665,302.74414"
       orientation="-1,0"
       id="guide6636"
       inkscape:locked="false"
       inkscape:label=""
       inkscape:color="rgb(0,134,229)" /><sodipodi:guide
       position="-829.06665,437.92773"
       orientation="-1,0"
       id="guide6638"
       inkscape:locked="false"
       inkscape:label=""
       inkscape:color="rgb(0,134,229)" /><sodipodi:guide
       position="-1369.0666,260.31464"
       orientation="-1,0"
       id="guide6640"
       inkscape:locked="false"
       inkscape:label=""
       inkscape:color="rgb(0,134,229)" /><sodipodi:guide
       position="-1069.0666,316.32164"
       orientation="-1,0"
       id="guide6642"
       inkscape:locked="false"
       inkscape:label=""
       inkscape:color="rgb(0,134,229)" /><sodipodi:guide
       position="-1299.4399,250.31464"
       orientation="0,1"
       id="guide6673"
       inkscape:locked="false"
       inkscape:label=""
       inkscape:color="rgb(0,134,229)" /><sodipodi:guide
       position="-1299.4399,242.81464"
       orientation="0,1"
       id="guide6675"
       inkscape:label=""
       inkscape:locked="false"
       inkscape:color="rgb(0,134,229)" /><sodipodi:guide
       position="-1299.4399,235.31464"
       orientation="0,1"
       id="guide6677"
       inkscape:label=""
       inkscape:locked="false"
       inkscape:color="rgb(0,134,229)" /><sodipodi:guide
       position="-1265.0866,17.600338"
       orientation="0,1"
       id="guide6759"
       inkscape:locked="false"
       inkscape:label=""
       inkscape:color="rgb(0,134,229)" /><sodipodi:guide
       position="-1265.0866,-909.18532"
       orientation="0,1"
       id="guide6761"
       inkscape:label=""
       inkscape:locked="false"
       inkscape:color="rgb(0,134,229)" /><sodipodi:guide
       position="-709.56666,138.89074"
       orientation="0,-1"
       id="guide13657"
       inkscape:locked="false" /></sodipodi:namedview><defs
     id="defs2"><linearGradient
       id="linearGradient1724"
       inkscape:swatch="solid"><stop
         style="stop-color:#000000;stop-opacity:1;"
         offset="0"
         id="stop1722" /></linearGradient></defs><g
     inkscape:groupmode="layer"
     id="g14429"
     inkscape:label="social"
     style="display:inline;fill:#19686f;fill-opacity:1"
     transform="translate(-461.0446,-114.39085)"><path
       d="m 485.994,117.36844 c -0.85466,0.47758 -1.84677,0.82678 -2.88551,0.987 l -0.0508,0.006 c 1.05624,-0.79186 1.85093,-2.00482 2.23827,-3.44475 l 0.0109,-0.0452 c -0.93629,0.68505 -2.02502,1.2109 -3.18206,1.50361 l -0.0683,0.0144 c -0.93546,-1.23143 -2.26326,-1.99865 -3.73601,-1.99865 -2.82471,0 -5.11462,2.82337 -5.11462,6.30612 0,0.50941 0.0491,1.00548 0.1416,1.47998 l -0.006,-0.0431 c -4.25913,-0.26086 -8.00763,-2.7525 -10.51997,-6.53822 l -0.0208,-0.0318 c -0.43483,0.89662 -0.69223,1.97811 -0.69223,3.13457 0,0.0134 0,0.0267 0,0.0401 v -0.002 c 0,10e-4 0,0.003 0,0.005 0,2.17736 0.89547,4.09692 2.2566,5.23078 l 0.0183,0.0144 c -0.85466,-0.0349 -1.64851,-0.32352 -2.34157,-0.80623 l 0.0258,0.0164 v 0.077 c 0,0.001 0,0.002 0,0.002 0,3.04111 1.74514,5.58101 4.06838,6.17671 l 0.0333,0.007 c -0.40317,0.13865 -0.86632,0.21773 -1.34446,0.21773 -0.3382,0 -0.66806,-0.0401 -0.98794,-0.11605 l 0.0325,0.006 c 0.67724,2.52553 2.55565,4.32595 4.78059,4.37936 h 0.005 c -1.72598,1.68232 -3.9326,2.69807 -6.33248,2.69807 -0.004,0 -0.007,0 -0.0117,0 h 8.1e-4 c -0.42899,-0.001 -0.85133,-0.0318 -1.26699,-0.0914 l 0.0508,0.006 c 2.21829,1.77578 4.93137,2.83158 7.84521,2.83158 0.004,0 0.007,0 0.0117,0 h -8.1e-4 c 0.0308,0 0.0683,0 0.10496,0 7.97848,0 14.44674,-7.97508 14.44674,-17.8122 0,-0.0401 0,-0.0791 0,-0.11914 v 0.006 c 0,-0.26909 0,-0.53817 -0.0158,-0.80726 1.00794,-0.90176 1.85676,-1.98324 2.53399,-3.22084 l 0.0233,-0.0452 z"
       id="path14419"
       style="fill:#19686f;fill-opacity:1;stroke-width:675.186"
       inkscape:label="twitter" /></g><style
     type="text/css"
     id="style3785">
	.st0{fill:#000000;}
</style></svg>
