<?xml version="1.0" encoding="UTF-8" standalone="no"?>
<!-- Created with Inkscape (http://www.inkscape.org/) -->

<svg
   width="24.999634"
   height="25.00045"
   viewBox="0 0 24.999634 25.00045"
   version="1.1"
   id="svg5"
   xml:space="preserve"
   inkscape:version="1.2.2 (732a01da63, 2022-12-09)"
   sodipodi:docname="_desktop-1280-720.svg"
   inkscape:export-filename="_mobile-720-1820.png"
   inkscape:export-xdpi="96"
   inkscape:export-ydpi="96"
   xmlns:inkscape="http://www.inkscape.org/namespaces/inkscape"
   xmlns:sodipodi="http://sodipodi.sourceforge.net/DTD/sodipodi-0.dtd"
   xmlns="http://www.w3.org/2000/svg"
   xmlns:svg="http://www.w3.org/2000/svg"><sodipodi:namedview
     id="namedview7"
     pagecolor="#ffffff"
     bordercolor="#000000"
     borderopacity="0.25"
     inkscape:showpageshadow="2"
     inkscape:pageopacity="0.0"
     inkscape:pagecheckerboard="0"
     inkscape:deskcolor="#d1d1d1"
     inkscape:document-units="px"
     showgrid="false"
     showguides="false"
     inkscape:zoom="0.3859375"
     inkscape:cx="347.20648"
     inkscape:cy="443.07692"
     inkscape:window-width="1366"
     inkscape:window-height="697"
     inkscape:window-x="-8"
     inkscape:window-y="-8"
     inkscape:window-maximized="1"
     inkscape:current-layer="layer4"><sodipodi:guide
       position="-713.6161,-1062.3932"
       orientation="0,-1"
       id="guide132"
       inkscape:locked="false" /><sodipodi:guide
       position="-1433.6161,217.60674"
       orientation="1,0"
       id="guide184"
       inkscape:locked="false" /><sodipodi:guide
       position="-713.6161,217.60674"
       orientation="0,-1"
       id="guide186"
       inkscape:locked="false" /><sodipodi:guide
       position="-713.6161,-1062.3932"
       orientation="1,0"
       id="guide188"
       inkscape:locked="false" /><sodipodi:guide
       position="-1193.6161,14.719338"
       orientation="-1,0"
       id="guide6632"
       inkscape:locked="false"
       inkscape:label=""
       inkscape:color="rgb(0,134,229)" /><sodipodi:guide
       position="-953.6161,260.03624"
       orientation="-1,0"
       id="guide6636"
       inkscape:locked="false"
       inkscape:label=""
       inkscape:color="rgb(0,134,229)" /><sodipodi:guide
       position="-833.6161,395.21984"
       orientation="-1,0"
       id="guide6638"
       inkscape:locked="false"
       inkscape:label=""
       inkscape:color="rgb(0,134,229)" /><sodipodi:guide
       position="-1373.6161,217.60674"
       orientation="-1,0"
       id="guide6640"
       inkscape:locked="false"
       inkscape:label=""
       inkscape:color="rgb(0,134,229)" /><sodipodi:guide
       position="-1073.6161,273.61374"
       orientation="-1,0"
       id="guide6642"
       inkscape:locked="false"
       inkscape:label=""
       inkscape:color="rgb(0,134,229)" /><sodipodi:guide
       position="-1303.9894,207.60674"
       orientation="0,1"
       id="guide6673"
       inkscape:locked="false"
       inkscape:label=""
       inkscape:color="rgb(0,134,229)" /><sodipodi:guide
       position="-1303.9894,200.10674"
       orientation="0,1"
       id="guide6675"
       inkscape:label=""
       inkscape:locked="false"
       inkscape:color="rgb(0,134,229)" /><sodipodi:guide
       position="-1303.9894,192.60674"
       orientation="0,1"
       id="guide6677"
       inkscape:label=""
       inkscape:locked="false"
       inkscape:color="rgb(0,134,229)" /><sodipodi:guide
       position="-1269.636,-25.107562"
       orientation="0,1"
       id="guide6759"
       inkscape:locked="false"
       inkscape:label=""
       inkscape:color="rgb(0,134,229)" /><sodipodi:guide
       position="-1269.636,-951.89323"
       orientation="0,1"
       id="guide6761"
       inkscape:label=""
       inkscape:locked="false"
       inkscape:color="rgb(0,134,229)" /><sodipodi:guide
       position="-714.11611,96.182838"
       orientation="0,-1"
       id="guide13657"
       inkscape:locked="false" /></sodipodi:namedview><defs
     id="defs2"><linearGradient
       id="linearGradient1724"
       inkscape:swatch="solid"><stop
         style="stop-color:#000000;stop-opacity:1;"
         offset="0"
         id="stop1722" /></linearGradient></defs><g
     inkscape:groupmode="layer"
     id="g14429"
     inkscape:label="social"
     style="display:inline;fill:#19686f;fill-opacity:1"
     transform="translate(-465.59404,-71.682487)"><path
       d="m 478.72379,71.703284 c 1.57057,-0.0208 3.12964,-0.01 4.68776,-0.0208 0.0518,1.69329 0.84237,3.21733 2.10018,4.34619 l -0.002,-0.002 c 1.35375,1.05967 3.11526,1.74665 5.05714,1.86337 l 0.0268,0.002 v 4.19863 c -1.83441,-0.04 -3.55947,-0.40769 -5.1147,-1.03965 l 0.0787,0.0283 c -0.7522,-0.31431 -1.3883,-0.63696 -1.99274,-0.99713 l 0.0499,0.0283 c -0.0115,3.04225 0.0115,6.0845 -0.0239,9.11592 -0.0989,1.54489 -0.68982,2.95388 -1.63773,4.13026 l 0.0192,-0.0258 c -1.58497,1.97259 -4.1524,3.26736 -7.07193,3.34406 h -0.0135 c -0.118,0.005 -0.25712,0.008 -0.3972,0.008 -1.65981,0 -3.2112,-0.40186 -4.53328,-1.09968 l 0.0383,0.0192 c -2.40624,-1.25808 -4.06605,-3.41076 -4.37306,-5.91442 l -0.003,-0.0342 c -0.0239,-0.52107 -0.0354,-1.04215 -0.0115,-1.55239 0.47011,-3.98436 4.31166,-7.06663 8.98118,-7.06663 0.52482,0 1.03906,0.0392 1.53892,0.11339 l -0.0537,-0.007 c 0.0239,1.54155 -0.048,3.08394 -0.048,4.62549 -0.40585,-0.12756 -0.87404,-0.20176 -1.3624,-0.20176 -1.7922,0 -3.31672,0.99546 -3.88087,2.38528 l -0.009,0.025 c -0.1276,0.356 -0.20148,0.76536 -0.20148,1.18889 0,0.17175 0.0124,0.34182 0.0356,0.50857 l -0.002,-0.02 c 0.31853,1.7058 2.00137,2.99306 4.03055,2.99306 0.0586,0 0.11609,-8.3e-4 0.17365,-0.003 h -0.008 c 1.40364,-0.0367 2.6221,-0.69282 3.31098,-1.66244 l 0.009,-0.015 c 0.25617,-0.31015 0.43175,-0.68532 0.49026,-1.09301 l 9.7e-4,-0.0117 c 0.11992,-1.86504 0.0719,-3.71924 0.0834,-5.58428 0.0115,-4.19862 -0.0115,-8.38724 0.0239,-12.57503 z"
       id="path14415"
       style="fill:#19686f;fill-opacity:1;stroke-width:804.234"
       inkscape:label="tiktok" /></g><style
     type="text/css"
     id="style3785">
	.st0{fill:#000000;}
</style></svg>
