<?xml version="1.0" encoding="UTF-8" standalone="no"?>
<!-- Created with Inkscape (http://www.inkscape.org/) -->

<svg
   width="24.999878"
   height="24.999969"
   viewBox="0 0 24.999878 24.999969"
   version="1.1"
   id="svg5"
   xml:space="preserve"
   inkscape:version="1.2.2 (732a01da63, 2022-12-09)"
   sodipodi:docname="_desktop-1280-720.svg"
   inkscape:export-filename="_mobile-720-1820.png"
   inkscape:export-xdpi="96"
   inkscape:export-ydpi="96"
   xmlns:inkscape="http://www.inkscape.org/namespaces/inkscape"
   xmlns:sodipodi="http://sodipodi.sourceforge.net/DTD/sodipodi-0.dtd"
   xmlns="http://www.w3.org/2000/svg"
   xmlns:svg="http://www.w3.org/2000/svg"><sodipodi:namedview
     id="namedview7"
     pagecolor="#ffffff"
     bordercolor="#000000"
     borderopacity="0.25"
     inkscape:showpageshadow="2"
     inkscape:pageopacity="0.0"
     inkscape:pagecheckerboard="0"
     inkscape:deskcolor="#d1d1d1"
     inkscape:document-units="px"
     showgrid="false"
     showguides="false"
     inkscape:zoom="0.3859375"
     inkscape:cx="347.20648"
     inkscape:cy="443.07692"
     inkscape:window-width="1366"
     inkscape:window-height="697"
     inkscape:window-x="-8"
     inkscape:window-y="-8"
     inkscape:window-maximized="1"
     inkscape:current-layer="layer4"><sodipodi:guide
       position="-711.97779,-979.14998"
       orientation="0,-1"
       id="guide132"
       inkscape:locked="false" /><sodipodi:guide
       position="-1431.9778,300.84998"
       orientation="1,0"
       id="guide184"
       inkscape:locked="false" /><sodipodi:guide
       position="-711.97779,300.84998"
       orientation="0,-1"
       id="guide186"
       inkscape:locked="false" /><sodipodi:guide
       position="-711.97779,-979.14998"
       orientation="1,0"
       id="guide188"
       inkscape:locked="false" /><sodipodi:guide
       position="-1191.9778,97.962577"
       orientation="-1,0"
       id="guide6632"
       inkscape:locked="false"
       inkscape:label=""
       inkscape:color="rgb(0,134,229)" /><sodipodi:guide
       position="-951.97779,343.27948"
       orientation="-1,0"
       id="guide6636"
       inkscape:locked="false"
       inkscape:label=""
       inkscape:color="rgb(0,134,229)" /><sodipodi:guide
       position="-831.97779,478.46307"
       orientation="-1,0"
       id="guide6638"
       inkscape:locked="false"
       inkscape:label=""
       inkscape:color="rgb(0,134,229)" /><sodipodi:guide
       position="-1371.9778,300.84998"
       orientation="-1,0"
       id="guide6640"
       inkscape:locked="false"
       inkscape:label=""
       inkscape:color="rgb(0,134,229)" /><sodipodi:guide
       position="-1071.9778,356.85698"
       orientation="-1,0"
       id="guide6642"
       inkscape:locked="false"
       inkscape:label=""
       inkscape:color="rgb(0,134,229)" /><sodipodi:guide
       position="-1302.3511,290.84998"
       orientation="0,1"
       id="guide6673"
       inkscape:locked="false"
       inkscape:label=""
       inkscape:color="rgb(0,134,229)" /><sodipodi:guide
       position="-1302.3511,283.34998"
       orientation="0,1"
       id="guide6675"
       inkscape:label=""
       inkscape:locked="false"
       inkscape:color="rgb(0,134,229)" /><sodipodi:guide
       position="-1302.3511,275.84998"
       orientation="0,1"
       id="guide6677"
       inkscape:label=""
       inkscape:locked="false"
       inkscape:color="rgb(0,134,229)" /><sodipodi:guide
       position="-1267.9977,58.135677"
       orientation="0,1"
       id="guide6759"
       inkscape:locked="false"
       inkscape:label=""
       inkscape:color="rgb(0,134,229)" /><sodipodi:guide
       position="-1267.9977,-868.64998"
       orientation="0,1"
       id="guide6761"
       inkscape:label=""
       inkscape:locked="false"
       inkscape:color="rgb(0,134,229)" /><sodipodi:guide
       position="-712.4778,179.42608"
       orientation="0,-1"
       id="guide13657"
       inkscape:locked="false" /></sodipodi:namedview><defs
     id="defs2"><linearGradient
       id="linearGradient1724"
       inkscape:swatch="solid"><stop
         style="stop-color:#000000;stop-opacity:1;"
         offset="0"
         id="stop1722" /></linearGradient></defs><g
     inkscape:groupmode="layer"
     id="g14429"
     inkscape:label="social"
     style="display:inline;fill:#19686f;fill-opacity:1"
     transform="translate(-463.95573,-154.92621)"><path
       d="m 484.62959,160.75463 c 0,0 0,8.3e-4 0,8.3e-4 0,0.82858 -0.67186,1.49962 -1.49961,1.49962 -0.82775,0 -1.49962,-0.67187 -1.49962,-1.49962 0,-0.82858 0.67187,-1.49962 1.49962,-1.49962 v 0 c 0.82775,8.4e-4 1.49878,0.67104 1.49961,1.49879 z m -8.17328,10.83908 c -2.30153,0 -4.16708,-1.86556 -4.16708,-4.16708 0,-2.30153 1.86555,-4.16709 4.16708,-4.16709 2.30152,0 4.16708,1.86556 4.16708,4.16709 v 0 c 0,0 0,8.3e-4 0,8.3e-4 0,2.30069 -1.86472,4.16542 -4.16541,4.16542 0,0 -8.4e-4,0 -8.4e-4,0 v 0 z m 0,-10.58568 c 0,0 0,0 0,0 -3.54523,0 -6.41859,2.8742 -6.41859,6.4186 0,3.54439 2.87419,6.41859 6.41859,6.41859 3.54523,0 6.41859,-2.8742 6.41859,-6.41859 v 0 c 0,0 0,0 0,-8.4e-4 0,-3.54439 -2.87336,-6.41859 -6.41859,-6.41859 0,0 0,0 -8.4e-4,0 v 0 z m 0,-3.83114 c 3.33683,0 3.73445,0.0167 5.05235,0.0742 0.83608,0.01 1.63132,0.16839 2.36737,0.44847 l -0.0475,-0.0158 c 1.09533,0.4268 1.94558,1.27705 2.36321,2.34404 l 0.01,0.0283 c 0.26341,0.68854 0.42013,1.48461 0.43013,2.3157 v 0.004 c 0.0592,1.31873 0.0725,1.71469 0.0725,5.05235 0,3.33767 -0.0158,3.73446 -0.0767,5.05235 -0.0158,0.83692 -0.17505,1.63216 -0.4543,2.36821 l 0.0158,-0.0483 c -0.21507,0.5635 -0.53349,1.04364 -0.93612,1.43876 l -8.3e-4,8.3e-4 c -0.39428,0.40346 -0.87443,0.72189 -1.41042,0.92445 l -0.0267,0.009 c -0.69104,0.26341 -1.48961,0.42012 -2.32403,0.43013 h -0.004 c -1.32706,0.0592 -1.71801,0.0725 -5.06151,0.0725 -3.34517,0 -3.73529,-0.0158 -5.06152,-0.0767 -0.84025,-0.0158 -1.63883,-0.17505 -2.37822,-0.4543 l 0.0492,0.0158 c -0.56351,-0.21173 -1.04365,-0.53099 -1.43544,-0.93528 l -8.3e-4,-8.3e-4 c -0.40762,-0.39178 -0.72772,-0.87276 -0.92861,-1.41126 l -0.008,-0.0258 c -0.26258,-0.69021 -0.42179,-1.48794 -0.43763,-2.32153 v -0.007 c -0.0467,-1.31289 -0.0634,-1.71801 -0.0634,-5.04568 0,-3.32933 0.0167,-3.73528 0.0634,-5.06402 0.0158,-0.83941 0.17422,-1.63715 0.45347,-2.37571 l -0.0158,0.0492 c 0.2059,-0.566 0.52683,-1.04781 0.93612,-1.4371 l 0.002,-0.002 c 0.39012,-0.41013 0.8711,-0.72939 1.41043,-0.92695 l 0.0258,-0.008 c 0.68604,-0.26508 1.47878,-0.4243 2.30736,-0.43847 h 0.006 c 1.3279,-0.0467 1.71885,-0.0625 5.06152,-0.0625 z m 0,-2.25068 c -3.39602,0 -3.81948,0.0158 -5.15321,0.075 -1.09617,0.0233 -2.13564,0.23507 -3.0976,0.60268 l 0.0633,-0.0208 c -0.86692,0.33094 -1.60548,0.82192 -2.214,1.44044 l -8.3e-4,8.3e-4 c -0.62102,0.60852 -1.11117,1.3479 -1.42793,2.17315 l -0.0142,0.0417 c -0.34677,0.8986 -0.5585,1.93892 -0.58101,3.02424 v 0.01 c -0.0625,1.33374 -0.075,1.7572 -0.075,5.15322 0,3.39602 0.0158,3.81948 0.075,5.15321 0.0233,1.09616 0.23507,2.13564 0.60269,3.0976 l -0.0208,-0.0634 c 0.66353,1.68468 1.97142,2.99257 3.61275,3.6411 l 0.0433,0.015 c 0.89861,0.34594 1.93892,0.55767 3.02424,0.58101 h 0.01 c 1.33373,0.0625 1.75719,0.075 5.15321,0.075 3.39602,0 3.81948,-0.0158 5.15321,-0.075 1.09616,-0.0242 2.13564,-0.23507 3.0976,-0.60268 l -0.0634,0.0217 c 1.68468,-0.66353 2.99257,-1.97142 3.6411,-3.61275 l 0.015,-0.0433 c 0.34677,-0.8986 0.55767,-1.93891 0.58101,-3.02424 v -0.01 c 0.0625,-1.33373 0.075,-1.75719 0.075,-5.15321 0,-3.39602 -0.0158,-3.81948 -0.075,-5.15322 -0.0242,-1.09616 -0.23507,-2.13564 -0.60268,-3.09759 l 0.0217,0.0634 c -0.33176,-0.86693 -0.82191,-1.60548 -1.44126,-2.214 l -8.4e-4,-8.3e-4 c -0.60851,-0.62102 -1.3479,-1.11117 -2.17315,-1.42793 l -0.0417,-0.0142 c -0.8986,-0.34677 -1.93891,-0.5585 -3.02424,-0.58101 h -0.01 c -1.33374,-0.0625 -1.7572,-0.075 -5.15322,-0.075 z"
       id="path14423"
       style="fill:#19686f;fill-opacity:1;stroke-width:749.7"
       inkscape:label="instagram" /></g><style
     type="text/css"
     id="style3785">
	.st0{fill:#000000;}
</style></svg>
