<?xml version="1.0" encoding="UTF-8" standalone="no"?>
<!-- Created with Inkscape (http://www.inkscape.org/) -->

<svg
   width="24.884155"
   height="25.000061"
   viewBox="0 0 24.884155 25.000061"
   version="1.1"
   id="svg5"
   xml:space="preserve"
   inkscape:version="1.2.2 (732a01da63, 2022-12-09)"
   sodipodi:docname="_desktop-1280-720.svg"
   inkscape:export-filename="_mobile-720-1820.png"
   inkscape:export-xdpi="96"
   inkscape:export-ydpi="96"
   xmlns:inkscape="http://www.inkscape.org/namespaces/inkscape"
   xmlns:sodipodi="http://sodipodi.sourceforge.net/DTD/sodipodi-0.dtd"
   xmlns="http://www.w3.org/2000/svg"
   xmlns:svg="http://www.w3.org/2000/svg"><sodipodi:namedview
     id="namedview7"
     pagecolor="#ffffff"
     bordercolor="#000000"
     borderopacity="0.25"
     inkscape:showpageshadow="2"
     inkscape:pageopacity="0.0"
     inkscape:pagecheckerboard="0"
     inkscape:deskcolor="#d1d1d1"
     inkscape:document-units="px"
     showgrid="false"
     showguides="false"
     inkscape:zoom="0.3859375"
     inkscape:cx="347.20648"
     inkscape:cy="443.07692"
     inkscape:window-width="1366"
     inkscape:window-height="697"
     inkscape:window-x="-8"
     inkscape:window-y="-8"
     inkscape:window-maximized="1"
     inkscape:current-layer="layer4"><sodipodi:guide
       position="-712.03565,-932.14989"
       orientation="0,-1"
       id="guide132"
       inkscape:locked="false" /><sodipodi:guide
       position="-1432.0357,347.85007"
       orientation="1,0"
       id="guide184"
       inkscape:locked="false" /><sodipodi:guide
       position="-712.03565,347.85007"
       orientation="0,-1"
       id="guide186"
       inkscape:locked="false" /><sodipodi:guide
       position="-712.03565,-932.14989"
       orientation="1,0"
       id="guide188"
       inkscape:locked="false" /><sodipodi:guide
       position="-1192.0356,144.96267"
       orientation="-1,0"
       id="guide6632"
       inkscape:locked="false"
       inkscape:label=""
       inkscape:color="rgb(0,134,229)" /><sodipodi:guide
       position="-952.03565,390.27957"
       orientation="-1,0"
       id="guide6636"
       inkscape:locked="false"
       inkscape:label=""
       inkscape:color="rgb(0,134,229)" /><sodipodi:guide
       position="-832.03565,525.46317"
       orientation="-1,0"
       id="guide6638"
       inkscape:locked="false"
       inkscape:label=""
       inkscape:color="rgb(0,134,229)" /><sodipodi:guide
       position="-1372.0356,347.85007"
       orientation="-1,0"
       id="guide6640"
       inkscape:locked="false"
       inkscape:label=""
       inkscape:color="rgb(0,134,229)" /><sodipodi:guide
       position="-1072.0356,403.85707"
       orientation="-1,0"
       id="guide6642"
       inkscape:locked="false"
       inkscape:label=""
       inkscape:color="rgb(0,134,229)" /><sodipodi:guide
       position="-1302.4089,337.85007"
       orientation="0,1"
       id="guide6673"
       inkscape:locked="false"
       inkscape:label=""
       inkscape:color="rgb(0,134,229)" /><sodipodi:guide
       position="-1302.4089,330.35007"
       orientation="0,1"
       id="guide6675"
       inkscape:label=""
       inkscape:locked="false"
       inkscape:color="rgb(0,134,229)" /><sodipodi:guide
       position="-1302.4089,322.85007"
       orientation="0,1"
       id="guide6677"
       inkscape:label=""
       inkscape:locked="false"
       inkscape:color="rgb(0,134,229)" /><sodipodi:guide
       position="-1268.0556,105.13577"
       orientation="0,1"
       id="guide6759"
       inkscape:locked="false"
       inkscape:label=""
       inkscape:color="rgb(0,134,229)" /><sodipodi:guide
       position="-1268.0556,-821.6499"
       orientation="0,1"
       id="guide6761"
       inkscape:label=""
       inkscape:locked="false"
       inkscape:color="rgb(0,134,229)" /><sodipodi:guide
       position="-712.53566,226.42617"
       orientation="0,-1"
       id="guide13657"
       inkscape:locked="false" /></sodipodi:namedview><defs
     id="defs2"><linearGradient
       id="linearGradient1724"
       inkscape:swatch="solid"><stop
         style="stop-color:#000000;stop-opacity:1;"
         offset="0"
         id="stop1722" /></linearGradient></defs><g
     inkscape:groupmode="layer"
     id="g14429"
     inkscape:label="social"
     style="display:inline;fill:#19686f;fill-opacity:1"
     transform="translate(-464.01359,-201.92621)"><path
       d="m 485.27294,205.55602 c -2.24256,-2.24257 -5.34047,-3.62979 -8.76267,-3.62979 -6.84357,0 -12.39246,5.54805 -12.39246,12.39246 0,2.27757 0.61441,4.41093 1.68567,6.24499 l -0.0317,-0.0583 -1.75821,6.4209 6.56846,-1.72319 c 1.70985,0.94955 3.74984,1.5081 5.9207,1.5081 h 0.005 c 6.84357,-0.002 12.38995,-5.55138 12.38995,-12.39495 0,-3.42054 -1.38555,-6.51678 -3.62561,-8.75934 v 0 z m -8.76517,19.06179 h -0.004 c 0,0 -8.4e-4,0 -8.4e-4,0 -1.93327,0 -3.74233,-0.53355 -5.28711,-1.46142 l 0.0467,0.0258 -0.37598,-0.22259 -3.89739,1.02291 1.03958,-3.80068 -0.2451,-0.38933 c -0.98789,-1.55228 -1.57479,-3.44387 -1.57479,-5.47302 0,-5.68727 4.61101,-10.29829 10.29828,-10.29829 5.68728,0 10.29829,4.61102 10.29829,10.29829 0,5.68728 -4.61018,10.29829 -10.29829,10.29829 v 0 z m 5.64892,-7.71225 c -0.30929,-0.15507 -1.83156,-0.90287 -2.11501,-1.00707 -0.28428,-0.10338 -0.49103,-0.15423 -0.69778,0.15589 -0.20508,0.30929 -0.79865,1.00624 -0.97956,1.21299 -0.18007,0.20758 -0.36181,0.23259 -0.6711,0.0784 -0.95872,-0.38849 -1.78238,-0.90619 -2.4985,-1.54395 l 0.008,0.007 c -0.6661,-0.61691 -1.23716,-1.32303 -1.69818,-2.10167 l -0.0233,-0.0433 c -0.18008,-0.30929 -0.0192,-0.47686 0.13505,-0.63109 0.13922,-0.13839 0.31012,-0.36181 0.46435,-0.54188 0.12172,-0.14923 0.22593,-0.32013 0.30512,-0.50354 l 0.005,-0.0142 c 0.0358,-0.0725 0.0567,-0.15673 0.0567,-0.24676 0,-0.10921 -0.0308,-0.21092 -0.0842,-0.29762 l 0.002,0.002 c -0.0784,-0.15506 -0.69694,-1.67901 -0.95455,-2.29925 -0.25176,-0.60358 -0.5077,-0.52105 -0.69694,-0.53105 -0.18007,-0.008 -0.38682,-0.01 -0.59357,-0.01 -0.3293,0.008 -0.62192,0.15673 -0.82367,0.38598 l -8.3e-4,0.002 c -0.6686,0.63442 -1.08377,1.52895 -1.08377,2.52018 0,0.0217 0,0.0442 8.4e-4,0.0659 v -0.003 c 0.10921,1.22299 0.56773,2.32093 1.27301,3.21545 l -0.01,-0.0125 c 1.3372,1.98329 3.11958,3.56976 5.21125,4.63852 l 0.0784,0.0359 c 0.45685,0.20675 1.04208,0.42767 1.64066,0.61691 l 0.12421,0.0342 c 0.36848,0.11672 0.79282,0.18424 1.23299,0.18424 0.25261,0 0.50104,-0.0225 0.74113,-0.065 l -0.0258,0.003 c 0.89119,-0.18591 1.63065,-0.72362 2.08167,-1.45808 l 0.007,-0.0142 c 0.13756,-0.30513 0.21759,-0.6611 0.21759,-1.03542 0,-0.15423 -0.0133,-0.30512 -0.0392,-0.45185 l 0.003,0.0158 c -0.0767,-0.12921 -0.28345,-0.20591 -0.59357,-0.36181 z"
       id="path14413"
       style="fill:#19686f;fill-opacity:1;stroke-width:25"
       inkscape:transform-center-x="-0.057255628"
       inkscape:transform-center-y="-0.057255292"
       inkscape:label="whatsapp" /></g><style
     type="text/css"
     id="style3785">
	.st0{fill:#000000;}
</style></svg>
